<svg width="290" height="201" viewBox="0 0 290 201" fill="none" xmlns="http://www.w3.org/2000/svg">
<path d="M203.51 0.20327C193.535 1.40485 185.143 5.39103 178.029 12.3144C174.443 15.8047 171.677 19.4476 169.751 23.2239L168.855 24.9977L168.721 23.5672C168.187 18.2841 165.441 12.8294 161.111 8.51894C158.002 5.39103 154.378 3.15953 150.621 2.07239L148.828 1.53836L126.933 1.44299L105.057 1.34763V45.1575V88.9864H124.816C146.788 88.9864 146.768 88.9864 150.621 87.7276C160.348 84.5615 167.977 75.4257 168.702 66.042C168.759 65.241 168.874 64.5734 168.931 64.5925C168.988 64.5925 169.312 65.1265 169.618 65.7559C169.942 66.4044 170.762 67.7967 171.448 68.8457C175.778 75.483 181.69 80.9377 188.404 84.4852C198.646 89.8828 211.615 90.8555 222.754 87.06C234.121 83.2074 243.696 74.4912 248.826 63.3337C251.172 58.1841 252.431 53.168 252.889 47.0075C253.385 40.1795 251.935 32.2834 248.998 25.7415C242.876 12.1618 230.364 2.72086 215.392 0.374924C212.741 -0.0255966 206.237 -0.140038 203.51 0.20327ZM142.019 21.4311C144.079 22.5183 145.433 24.4827 145.872 26.9813C146.444 30.1473 144.804 33.6185 142.096 34.9536L141.009 35.4876L134.295 35.5449L127.562 35.6021V28.24V20.878L134.39 20.9352C141.104 20.9924 141.218 20.9924 142.019 21.4311ZM211.196 22.2322C224.776 23.777 233.74 36.7655 230.364 50.0019C229.41 53.7402 227.617 56.9444 224.871 59.8243C222.067 62.7615 218.997 64.6878 215.296 65.775C212.912 66.4997 211.673 66.6714 209.022 66.6714C202.899 66.6714 197.826 64.6116 193.477 60.3965C186.554 53.6448 184.761 43.193 189.072 34.534C190.273 32.1309 191.284 30.7195 193.153 28.7932C196.796 25.0931 201.393 22.8234 206.428 22.2703C208.583 22.0224 209.25 22.0224 211.196 22.2322ZM164.659 39.5883C164.239 40.8852 164.258 49.9828 164.659 50.6504C164.716 50.7648 164.716 50.8411 164.62 50.8411C164.544 50.8411 164.22 50.4787 163.896 50.0401C162.694 48.3998 159.299 45.825 157.144 44.9095L155.904 44.3946L156.743 44.1657C158.517 43.6889 162.179 41.4955 163.705 40.0079C164.582 39.1496 164.83 39.0352 164.659 39.5883ZM140.989 53.9881C142.382 54.3505 143.545 55.1515 144.442 56.3722C146.845 59.6336 146.406 64.3445 143.45 67.0529C141.81 68.5405 141.638 68.5787 134.104 68.5787H127.562V61.2738C127.562 57.2495 127.62 53.8927 127.696 53.8355C127.753 53.7592 130.538 53.702 133.856 53.702C138.605 53.702 140.112 53.7592 140.989 53.9881Z" fill="#E9E9E9"/>
<path d="M205.093 27.3247C199.562 28.4881 194.718 32.5887 192.62 37.8718C191.819 39.8935 191.457 41.9152 191.457 44.3375C191.457 48.686 192.696 52.2335 195.405 55.6475C197.369 58.1079 200.993 60.4157 204.331 61.3693C205.628 61.7317 206.314 61.808 208.813 61.808C211.311 61.808 211.998 61.7317 213.257 61.3693C216.308 60.492 218.616 59.1569 220.962 56.8873C223.594 54.3506 225.33 51.0892 225.959 47.5226C226.264 45.8442 226.207 42.4493 225.864 40.79C224.528 34.3434 219.493 29.0984 213.047 27.4582C210.892 26.9051 207.287 26.8479 205.093 27.3247Z" fill="#E9E9E9"/>
<path d="M36.7808 45.2147V88.9864H48.8919H61.003L61.0412 72.0499L61.0984 55.1325L68.7846 55.0753L76.4518 55.0371V72.0118V88.9864H88.2769H100.102V45.2147V1.44304H88.2769H76.4518V17.7501V34.0572H68.7274H61.003V17.7501V1.44304H48.8919H36.7808V45.2147Z" fill="#E9E9E9"/>
<path d="M31.343 111.607C17.3437 112.522 6.91097 119.674 2.35261 131.518C1.60878 133.426 1.0366 135.581 0.483491 138.48C0.102039 140.521 0.102039 141.322 0.0257481 166.765C-0.0314698 184.369 0.00667542 193.295 0.140184 194.02C0.617 196.499 2.27632 198.75 4.46967 199.818C6.0527 200.6 7.80738 200.79 12.4611 200.714C15.7225 200.657 16.2184 200.619 16.5045 200.313C16.8287 199.989 16.8478 198.463 16.9432 170.751C17.0576 138.594 16.9813 140.959 18.221 137.851C20.5288 132.033 25.564 128.677 32.6781 128.181C35.8442 127.952 39.1056 128.581 42.0237 129.993C45.6666 131.766 48.0697 134.379 49.462 138.099C50.6255 141.169 50.5682 139.72 50.6827 168.424L50.7971 194.744L51.4265 196.041C52.2466 197.681 53.5817 199.017 55.222 199.837L56.4998 200.466L61.6304 200.523C66.265 200.581 66.799 200.561 67.1233 200.256C67.4666 199.932 67.4857 199.169 67.4857 172.162C67.4857 154.635 67.562 143.763 67.6764 142.676C68.6682 133.96 74.5235 128.581 83.5067 128.143C88.9996 127.895 93.825 129.688 97.1055 133.216C98.8792 135.142 99.9854 137.278 100.806 140.292C101.111 141.436 101.149 143.649 101.244 168.043L101.34 194.554L102.045 196.003C102.904 197.758 104.181 199.017 105.974 199.856L107.252 200.466L112.325 200.523L117.418 200.581L117.818 200.066L118.219 199.551V171.495C118.219 153.433 118.143 142.657 118.009 141.246C117.456 135.161 115.663 129.783 112.669 125.225C111.086 122.802 107.328 119.045 104.868 117.424C98.9937 113.514 92.2992 111.626 84.3649 111.626C79.654 111.626 76.1065 112.16 71.9487 113.495C67.8671 114.83 63.5376 117.328 60.5814 120.075L59.0937 121.448L57.6251 120.075C52.9142 115.726 46.0289 112.713 38.9721 111.893C36.8932 111.664 32.907 111.511 31.343 111.607Z" fill="#E9E9E9"/>
<path d="M158.845 111.607C158.578 111.645 157.605 111.778 156.652 111.893C154.477 112.16 150.835 112.999 148.737 113.743C137.98 117.519 130.179 125.205 125.945 136.191C123.599 142.256 122.569 148.302 122.55 156.027C122.55 163.637 123.446 169.473 125.601 175.481C131.304 191.406 145.227 201 162.66 201C170.975 201 178.585 198.845 184.936 194.668C185.909 194.019 186.729 193.504 186.767 193.504C186.786 193.504 186.92 193.962 187.053 194.496C187.721 197.529 190.467 200.046 193.672 200.561C194.301 200.676 196.59 200.752 198.764 200.752H202.75L203.303 200.199L203.856 199.627L203.818 156.732C203.761 114.83 203.761 113.819 203.399 113.418C203.036 113.037 202.884 113.018 198.058 113.018C193.29 113.018 193.042 113.037 191.993 113.476C189.781 114.372 187.835 116.394 187.244 118.377C187.111 118.778 186.977 119.121 186.939 119.121C186.901 119.121 186.138 118.625 185.203 117.996C179.939 114.467 174.256 112.484 167.142 111.683C165.54 111.511 159.913 111.454 158.845 111.607ZM166.97 128.562C174.084 129.802 179.882 134.112 183.22 140.635C187.664 149.275 187.835 162.168 183.639 171.132C181.37 175.996 177.345 180.096 172.863 182.175C169.926 183.529 167.351 184.121 163.804 184.292C159.894 184.464 156.804 183.949 153.333 182.538C148.317 180.497 143.816 176.015 141.508 170.713C137.465 161.501 137.77 148.855 142.233 140.368C144.445 136.153 147.897 132.72 151.941 130.679C153.714 129.783 156.27 128.925 158.197 128.581C160.275 128.2 164.853 128.2 166.97 128.562Z" fill="#E9E9E9"/>
<path d="M208.221 113.418C208.107 113.647 208.05 113.952 208.107 114.143C208.145 114.315 210.834 118.396 214.096 123.222C232.997 151.316 234.084 152.956 234.504 154.215C235.19 156.217 235.038 158.449 234.103 160.318C233.855 160.795 227.923 169.721 220.924 180.134C213.924 190.567 208.145 199.264 208.088 199.455C208.05 199.646 208.164 199.989 208.336 200.18C208.66 200.542 208.965 200.561 215.889 200.561C220.447 200.561 223.46 200.485 224.109 200.351C226.398 199.875 228.858 198.33 230.327 196.461C230.727 195.927 234.236 190.796 238.089 185.036C241.961 179.276 245.318 174.336 245.547 174.069C247.111 172.219 250.505 172.219 252.241 174.069C252.565 174.432 256.056 179.524 260.004 185.399C263.952 191.273 267.537 196.499 267.976 197.014C268.93 198.139 270.875 199.436 272.534 200.027C273.717 200.447 273.946 200.466 281.441 200.523C289.852 200.58 289.776 200.599 289.643 199.531C289.585 199.15 285.141 192.379 276.73 179.887C269.673 169.416 263.723 160.49 263.532 160.051C262.674 158.087 262.674 155.493 263.532 153.547C263.723 153.128 269.673 144.144 276.788 133.578C284.684 121.81 289.681 114.2 289.681 113.914C289.681 113.018 289.662 113.018 281.766 113.018C273.545 113.018 273.068 113.075 270.913 114.219C268.605 115.44 268.11 116.089 260.213 127.837C256.151 133.902 252.584 139.109 252.317 139.414C251.631 140.177 250.086 140.864 249.056 140.864C247.645 140.864 246.767 140.521 245.795 139.567C245.28 139.052 241.713 133.921 237.498 127.647C229.564 115.802 229.163 115.307 226.836 114.143C224.624 113.056 224.281 113.018 216.022 113.018C208.508 113.018 208.45 113.018 208.221 113.418Z" fill="#E9E9E9"/>
</svg>
