<svg width="2506" height="641" viewBox="0 0 2506 641" fill="none" xmlns="http://www.w3.org/2000/svg">
<g clip-path="url(#clip0_74_2)">
<path d="M1576.33 0.632115C1575.7 0.884975 1566.34 2.65499 1555.6 4.55144C1544.98 6.44789 1535.37 8.85006 1534.49 9.8615C1532.21 12.0108 1532.21 17.4473 1534.74 50.9512C1535.88 66.1228 1536.51 78.8923 1536.01 79.398C1535.5 79.7773 1526.53 80.6623 1515.91 81.4209C1504.53 82.053 1496.32 83.0645 1495.81 83.9495C1495.31 84.7081 1494.8 92.4203 1494.8 101.018V116.568L1516.79 115.683L1538.79 114.798L1539.55 124.028C1539.92 129.211 1540.94 150.957 1541.69 172.577C1542.33 194.07 1543.08 211.897 1543.34 212.149C1543.59 212.276 1553.2 212.149 1564.7 211.644C1584.29 210.885 1585.68 210.632 1586.69 208.104C1587.58 206.334 1586.69 190.024 1584.42 159.934C1582.4 134.901 1580.88 113.155 1580.75 111.764C1580.75 109.109 1581.51 108.983 1598.32 108.098C1618.92 107.086 1617.41 108.73 1617.41 88.1217V74.5936H1597.82H1578.22L1579.11 37.2968C1579.61 15.0451 1579.49 -3.52848e-05 1578.73 0.126395C1578.1 0.126395 1577.09 0.379255 1576.33 0.632115Z" fill="white"/>
<path d="M1102.96 20.4816C1102.96 28.3203 1102.07 73.835 1100.94 121.499C1099.67 169.163 1099.17 209.115 1099.55 210.379C1100.31 212.276 1102.58 212.402 1120.91 212.149L1141.51 211.77L1142.27 188.381C1142.78 175.485 1143.15 159.934 1143.28 153.739L1143.41 142.613L1146.95 143.498C1167.3 148.682 1190.68 150.452 1206.23 147.923C1230.12 144.13 1247.94 134.269 1257.29 119.729C1268.8 101.903 1269.05 69.0307 1257.8 49.8134C1245.79 29.3317 1218.87 17.7001 1188.03 19.5966C1176.9 20.2287 1159.33 23.2631 1149.98 26.0445C1147.07 26.9295 1147.07 26.6767 1147.2 19.4702C1147.58 4.67785 1150.36 6.32144 1125.08 6.32144H1102.96V20.4816ZM1201.68 56.2613C1215.08 60.9392 1224.3 72.065 1224.3 83.3173C1224.3 95.9603 1213.81 108.098 1198.77 112.649C1184.23 117.074 1163.13 114.04 1150.61 105.822L1144.42 101.776L1144.92 84.8345L1145.43 68.0193L1149.1 64.985C1154.66 60.4335 1165.15 55.7556 1172.73 54.4913C1181.2 52.9741 1194.47 53.7327 1201.68 56.2613Z" fill="white"/>
<path d="M406.496 19.8495C379.446 22.631 361.118 32.9983 352.27 50.6985C335.712 83.6967 352.27 109.868 401.819 128.959C429.501 139.705 429.88 139.832 429.88 148.429C429.88 155.382 425.709 160.819 417.366 164.991C404.221 171.439 384.123 170.554 363.014 162.463C356.694 159.934 351.006 157.911 350.374 157.658C349.742 157.532 348.731 159.049 348.099 161.198C347.341 163.221 344.181 171.439 341.021 179.404L335.333 193.817L338.113 196.219C343.801 200.644 370.345 206.713 390.696 208.104C421.537 210.127 454.907 200.644 470.707 185.473C472.982 183.324 476.395 178.393 478.165 174.726C480.945 168.91 481.451 166.255 481.451 156.9C481.451 141.981 478.038 134.522 465.651 122.005C455.413 111.764 450.23 108.856 423.56 98.1097C396.257 86.9839 392.592 84.3288 392.592 75.6052C392.592 70.4215 396.005 65.1115 401.566 61.5714C408.265 57.5257 424.065 57.1464 442.014 60.6864C449.977 62.33 458.573 64.3529 461.101 65.2379L465.777 66.8815L470.707 59.0428C478.67 46.2734 483.6 37.1704 483.6 35.1476C483.6 31.2282 477.785 27.9411 465.272 24.7803C444.921 19.7231 424.571 17.9531 406.496 19.8495Z" fill="white"/>
<path d="M1293.19 23.516C1281.94 26.2974 1277.01 31.6075 1275.62 42.6069C1274.74 50.0663 1276.63 56.1349 1281.31 60.56C1291.04 69.7893 1309.88 68.9043 1319.1 58.9164C1321.76 56.0085 1322.26 53.9856 1322.64 46.3998C1323.15 35.5268 1320.62 29.8375 1313.92 26.2974C1309.5 24.0217 1297.62 22.3781 1293.19 23.516Z" fill="white"/>
<path d="M1759.73 53.1006C1745.83 54.8706 1741.66 55.882 1740.27 57.7785C1738.37 60.3071 1738.37 59.8014 1742.04 100.512C1744.69 130.223 1743.93 151.842 1740.02 159.934C1736.1 167.899 1729.4 172.324 1719.67 172.956C1713.22 173.462 1711.45 173.083 1707.41 170.428C1701.46 166.382 1696.28 157.026 1693.63 145.142C1691.86 137.556 1691.61 129.085 1691.73 96.8453L1691.98 57.9049L1689.08 58.5371C1687.56 58.9163 1676.94 60.4335 1665.44 62.0771C1653.94 63.5943 1643.83 65.6171 1642.81 66.5021C1640.79 68.3986 1640.79 79.7773 1642.81 106.201C1646.35 152.854 1654.19 177.381 1671 194.07C1688.45 211.391 1706.65 216.827 1730.28 211.77C1755.31 206.46 1776.04 184.841 1784.13 155.509C1788.17 141.222 1789.44 121.752 1789.06 84.7081L1788.68 51.2041L1782.99 51.0777C1779.83 50.9513 1769.34 51.8363 1759.73 53.1006Z" fill="white"/>
<path d="M1830.64 54.2385C1813.96 56.5142 1812.06 57.6521 1812.06 65.6172C1812.06 68.1458 1814.09 88.6274 1816.36 111.258C1818.76 133.889 1822.05 166.508 1823.44 183.956C1824.96 201.277 1826.47 215.816 1826.73 216.195C1827.11 216.448 1839.11 215.184 1853.52 213.287C1873.75 210.632 1880.19 209.242 1881.96 207.472C1884.11 205.322 1883.99 203.932 1877.92 170.554C1866.29 106.454 1866.04 105.063 1867.68 103.04C1868.56 102.029 1872.61 99.5004 1876.91 97.3511C1888.79 91.4089 1903.58 92.2939 1922.28 99.8797C1933.91 104.684 1934.17 104.431 1940.99 77.1223C1943.14 68.9044 1944.78 60.6864 1944.78 59.0428C1944.78 55.2499 1942.76 54.7442 1921.65 53.1006C1896.75 51.0777 1873.87 55.5028 1859.08 65.2379C1855.29 67.7665 1852.01 69.4101 1851.75 69.1572C1851.37 68.7779 1850.49 64.8586 1849.73 60.1807C1848.97 55.6292 1847.71 51.9627 1846.95 51.9627C1846.19 52.0892 1838.86 53.1006 1830.64 54.2385Z" fill="white"/>
<path d="M675.096 54.6178C673.958 58.1578 663.088 191.036 663.088 202.288C663.088 206.207 663.72 210 664.605 210.885C665.616 211.897 671.683 212.402 683.565 212.402C703.536 212.402 701.513 214.046 702.904 197.231C707.075 142.866 713.648 122.258 728.942 114.546C737.158 110.5 744.11 110.373 751.568 114.04C758.393 117.453 762.312 123.016 764.081 131.614C765.598 138.82 765.725 176.496 764.334 199.127C763.702 207.598 763.829 215.31 764.461 216.448C765.472 218.471 767.621 218.724 782.409 218.724H799.221L799.979 212.023C802.381 192.3 803.645 165.37 803.013 149.187C801.496 113.534 791.005 86.9838 774.573 78.0073C760.542 70.4215 736.653 68.5251 723.507 73.9616C721.485 74.7201 721.232 73.9616 721.232 66.755C721.232 53.1006 721.105 53.1006 696.457 53.1006C680.91 53.1006 675.475 53.4799 675.096 54.6178Z" fill="white"/>
<path d="M2015.82 54.3649C1992.18 57.6521 1972.84 69.9158 1960.08 89.7653C1951.86 102.408 1949.21 112.649 1949.21 130.855C1949.33 155.888 1955.78 172.703 1970.7 187.749C1980.93 197.989 1992.31 204.437 2007.35 208.862C2016.2 211.391 2020.12 211.77 2039.58 211.77C2057.79 211.644 2063.6 211.138 2072.45 208.989C2087.74 205.196 2096.84 201.529 2100.26 197.863L2103.29 194.576L2095.83 179.531C2091.66 171.186 2088.12 164.359 2087.74 164.359C2087.49 164.359 2082.81 165.876 2077.63 167.773C2070.17 170.301 2064.86 171.186 2053.99 171.692C2037.44 172.324 2028.84 170.428 2020.5 163.98C2015.32 160.06 2007.35 147.544 2008.62 145.395C2008.87 144.889 2015.82 144.13 2024.04 143.624C2032.25 143.119 2053.87 141.728 2072.2 140.464C2103.92 138.314 2105.44 138.062 2108.6 135.154C2111.25 132.625 2111.63 131.361 2111 127.694C2105.31 95.4547 2091.03 73.203 2068.66 61.9507C2054.75 54.9971 2033.52 51.8363 2015.82 54.3649ZM2040.22 93.4318C2046.28 96.2133 2051.72 101.397 2054.88 107.718L2057.28 112.27L2052.48 113.028C2042.36 114.672 2004.82 116.189 2003.56 114.925C2001.79 113.155 2004.95 99.7533 2007.98 96.719C2011.78 92.9261 2017.72 91.2825 2026.94 91.1561C2032.38 91.1561 2036.93 91.9146 2040.22 93.4318Z" fill="white"/>
<path d="M2183.05 53.8591C2173.19 55.2499 2164.72 57.5256 2157.39 60.8128C2147.15 65.3643 2134.76 77.2487 2129.83 86.9838C2126.67 93.3053 2126.29 95.581 2126.17 105.569C2126.17 114.925 2126.67 117.959 2129.08 122.89C2134.64 134.016 2145.25 140.59 2168.51 147.291C2189.49 153.233 2202.64 162.21 2202.64 170.68C2202.64 176.876 2197.96 178.898 2183.68 178.898C2172.68 178.772 2170.16 178.266 2154.99 172.956C2140.33 167.899 2137.92 167.393 2135.77 168.91C2134.51 169.922 2129.83 177.255 2125.54 185.473C2116.44 202.667 2115.93 201.15 2132.99 207.345C2154.48 215.184 2161.56 216.575 2179.26 216.575C2204.03 216.701 2218.31 212.655 2235.63 200.897C2249.41 191.541 2256.11 180.668 2256.23 167.52C2256.36 149.314 2242.33 137.682 2202.64 122.89C2175.72 112.902 2170.66 108.35 2172.81 96.5925C2173.57 92.926 2174.58 91.7881 2178.37 90.1445C2184.69 87.4895 2197.71 88.6274 2210.86 92.7996C2220.72 95.9603 2221.09 95.9603 2224.13 93.6846C2225.9 92.4203 2230.83 85.2138 2235 77.628L2242.84 63.8471L2239.93 62.3299C2232.09 58.0313 2214.27 54.2384 2200.74 53.7327C2193.16 53.4799 2185.2 53.4799 2183.05 53.8591Z" fill="white"/>
<path d="M1413.4 56.3877C1395.07 60.4335 1379.65 69.9157 1367.64 84.7081C1350.2 106.328 1344.38 133.763 1351.97 158.417C1357.02 174.473 1373.84 193.691 1390.77 202.667C1404.3 209.747 1416.31 212.402 1434.63 212.402C1450.56 212.276 1476.22 208.736 1478.87 206.081C1480.26 204.69 1481.78 165.623 1480.52 165.623C1480.14 165.623 1476.98 167.014 1473.56 168.784C1464.59 173.335 1455.49 174.853 1442.34 174.22C1428.19 173.462 1419.84 170.048 1412.51 162.21C1409.73 159.175 1406.19 153.865 1404.68 150.705C1401.52 143.498 1400.25 127.441 1402.4 120.993C1404.68 114.166 1414.28 104.305 1422.5 100.259C1429.2 96.9718 1430.84 96.7189 1444.87 96.7189C1453.21 96.7189 1463.96 97.4775 1468.76 98.4889C1476.09 100.006 1477.61 100.006 1478.62 98.4889C1479.51 97.0982 1478.87 59.6749 1477.86 58.537C1477.86 58.4106 1471.67 57.3992 1464.34 56.3877C1447.78 53.8591 1425.03 53.9856 1413.4 56.3877Z" fill="white"/>
<path d="M552.614 57.6521C539.721 60.8129 529.357 66.7551 518.865 77.1223C494.217 101.776 488.15 137.809 503.318 170.301C507.489 179.278 524.174 196.346 533.781 201.403C555.648 213.035 592.683 212.782 615.056 200.897C646.15 184.335 658.664 135.533 641.094 99.1212C626.811 69.5365 604.438 55.5028 572.206 55.7557C565.507 55.7557 556.659 56.6407 552.614 57.6521ZM589.397 95.4547C602.037 100.765 606.84 111.132 606.587 132.752C606.208 155.003 599.761 170.048 587.88 175.738C576.251 181.427 555.521 178.772 549.328 170.933C543.766 163.853 540.101 142.866 541.744 126.683C543.766 107.466 550.971 97.0983 565.128 93.4318C570.563 91.9147 583.709 93.0525 589.397 95.4547Z" fill="white"/>
<path d="M946.856 64.6057C939.272 65.87 931.182 67.2608 929.034 67.6401L925.242 68.2722L926.253 77.5016C928.022 94.6961 931.056 134.269 931.056 141.602C931.056 148.682 930.803 149.187 926.126 153.233C912.349 164.991 884.414 166.255 872.912 155.509L868.741 151.59L869.499 138.062C870.005 128.2 871.774 118.338 875.946 101.776C880.243 84.5817 881.254 78.513 880.243 76.6166C878.979 74.3409 877.715 74.2144 856.859 74.973C844.598 75.3523 834.234 76.1109 833.602 76.743C831.579 78.7659 825.891 113.534 825.259 128.326C824.501 145.9 825.891 154.624 831.326 165.497C840.427 183.829 859.261 192.932 887.448 192.679C903.374 192.553 912.728 190.53 926.758 184.082C938.134 178.772 938.514 179.151 936.365 193.059C933.963 208.609 928.402 216.575 915.888 222.39C909.821 225.172 906.787 225.678 893.01 226.057C873.67 226.689 866.971 225.045 855.216 216.827L847 211.138L836.003 222.896C829.936 229.218 825.006 235.033 824.88 235.539C824.754 239.838 846.368 252.101 860.904 255.894C877.968 260.446 907.293 259.687 926.885 254.124C954.946 246.033 971.504 229.091 977.445 202.288C980.605 187.749 979.973 161.198 975.549 120.109C973.4 101.018 971.378 81.0416 970.872 75.858C970.366 70.6744 969.734 65.3643 969.482 64.1C968.597 61.445 965.437 61.445 946.856 64.6057Z" fill="white"/>
<path d="M1285.48 129.211C1285.86 153.107 1286.62 181.427 1287 192.3L1287.88 212.023L1304.82 213.035C1314.68 213.54 1322.39 213.414 1323.02 212.782C1323.91 211.897 1327.83 112.902 1327.95 90.0181V85.9724H1306.34H1284.6L1285.48 129.211Z" fill="white"/>
<path d="M242.176 264.365C240.406 265.124 232.696 266.767 224.986 268.031C211.966 270.307 206.278 270.434 153.317 269.675L95.6783 268.916L95.0463 271.951C94.6671 273.594 94.0351 280.422 93.6559 286.996C91.5071 320.626 85.6927 341.867 45.8767 461.596C7.57753 576.647 -0.00646591 595.738 -20.1041 626.334L-22.1265 629.368L-7.84327 632.782C5.93433 636.069 8.46233 636.322 57.5055 637.46C85.5663 638.092 108.571 638.471 108.824 638.219C108.95 637.966 108.571 633.288 107.939 627.725C107.307 622.162 107.054 613.059 107.434 607.496C108.066 597.508 114.765 569.441 116.914 567.291C117.925 566.28 153.696 567.671 178.85 569.82L188.203 570.578L187.318 582.716C186.939 589.417 184.917 602.565 182.894 611.921C180.872 621.277 179.608 629.368 180.114 629.874C180.619 630.506 185.802 632.276 191.616 634.046C202.234 637.207 203.245 637.333 264.296 638.345C298.424 638.977 327.243 639.989 328.634 640.494C330.403 641.126 330.782 641 330.277 639.609C322.44 620.265 307.272 555.154 290.334 467.791C277.315 400.53 266.066 310.891 267.835 287.375L268.467 278.146L258.229 271.066C246.094 262.721 246.221 262.721 242.176 264.365ZM175.058 439.344C181.63 466.653 186.939 495.985 186.307 501.548L185.928 504.708L170.128 504.582C161.406 504.456 150.41 504.076 145.733 503.697L137.011 502.812L137.77 498.766C140.045 486.755 166.21 410.265 167.6 411.782C168.106 412.288 171.518 424.678 175.058 439.344Z" fill="white"/>
<path d="M722.875 267.399C712.637 270.307 706.949 273.595 700.629 280.675C690.769 291.548 685.461 310.891 688.368 325.304C690.517 336.683 694.561 343.637 706.19 355.774C713.521 363.613 718.577 367.658 724.139 370.44C733.366 374.991 744.995 377.267 752.705 376.256C766.736 374.359 786.454 359.946 792.901 346.671C796.061 340.223 796.44 338.074 796.44 326.822C796.44 314.684 796.187 313.673 791.763 304.696C781.651 284.468 770.022 272.71 756.118 268.664C746.385 265.756 730.585 265.124 722.875 267.399Z" fill="white"/>
<path d="M1735.59 273.215C1726.11 274.732 1718.65 277.767 1712.97 282.192C1702.35 290.283 1690.47 307.604 1686.3 320.626C1681.87 334.66 1687.18 352.36 1699.95 366.141C1709.17 376.129 1718.91 380.807 1732.68 381.566C1744.31 382.198 1751.27 380.175 1760.49 373.474C1769.72 366.647 1784.89 348.694 1789.56 338.959C1793.23 331.499 1793.61 329.476 1793.61 319.868C1793.36 295.467 1779.96 278.652 1756.95 273.721C1747.35 271.698 1744.95 271.572 1735.59 273.215Z" fill="white"/>
<path d="M1488.99 292.559C1487.09 296.858 1486.71 303.053 1486.46 329.856C1486.2 347.43 1485.83 362.222 1485.45 362.601C1485.07 362.854 1473.56 361.716 1459.79 359.82C1446.01 358.05 1434.38 356.532 1433.87 356.532C1433.5 356.532 1432.23 359.188 1431.09 362.475C1429.32 367.658 1429.2 371.83 1430.59 399.519L1431.98 430.747L1458.65 432.264C1473.31 433.149 1485.7 434.16 1486.08 434.666C1486.58 435.172 1488.1 459.699 1489.62 489.284C1491.13 518.869 1493.03 547.315 1493.66 552.499C1497.58 581.072 1508.45 605.979 1522.35 618.369C1535.5 630.127 1556.74 636.828 1575.7 635.563C1597.56 633.92 1618.67 627.851 1625.37 621.277L1629.67 616.978L1632.58 577.153C1634.22 555.28 1635.1 536.948 1634.72 536.569C1634.35 536.063 1627.39 534.167 1619.43 532.27C1597.31 527.087 1592.13 521.776 1589.35 501.548C1587.32 486.376 1589.47 438.459 1592.38 435.551C1592.63 435.172 1606.03 435.804 1621.96 436.816L1650.9 438.712L1654.95 434.034C1657.1 431.379 1659.5 427.839 1660.26 426.069C1662.15 421.012 1672.39 378.152 1671.76 377.646C1671.38 377.267 1655.33 376.508 1635.86 375.75C1616.52 374.991 1600.22 373.98 1599.71 373.348C1598.95 372.589 1602.75 338.074 1607.67 299.26L1608.31 294.582H1588.97C1570.26 294.582 1536.26 292.306 1505.92 289.019L1491.13 287.502L1488.99 292.559Z" fill="white"/>
<path d="M1251.48 304.064C1213.05 311.144 1184.99 332.005 1162.37 370.187C1157.56 378.405 1157.06 379.922 1157.56 385.611C1157.94 389.151 1158.58 392.312 1158.96 392.692C1159.33 393.071 1171.22 398.128 1185.37 403.944C1199.4 409.633 1214.44 415.828 1218.49 417.725L1226.07 421.138L1233.4 413.047C1247.44 397.369 1261.84 391.554 1279.79 394.082C1295.09 396.358 1303.43 400.151 1311.77 408.369C1317.21 413.805 1319.36 417.093 1320.87 422.276C1322.64 428.345 1323.65 437.448 1322.39 437.448C1322.14 437.448 1317.71 435.425 1312.53 433.023C1292.94 424.046 1275.5 421.265 1251.73 423.414C1228.1 425.69 1208.88 433.276 1190.3 447.815C1174.88 459.952 1160.22 482.457 1155.42 501.801C1152.64 512.674 1152.89 529.489 1155.92 543.522C1160.72 565.521 1168.18 579.681 1182.47 593.842C1190.05 601.427 1194.09 604.335 1204.59 609.393C1223.29 618.495 1235.05 621.151 1255.27 621.151C1285.61 621.024 1307.1 613.438 1332.38 594.221C1336.8 590.681 1340.72 587.899 1340.84 587.899C1341.1 587.899 1341.1 594.347 1340.84 602.186L1340.47 616.599L1350.2 617.358C1355.51 617.863 1378.26 618.243 1400.51 618.243H1441.21L1443.1 614.829C1444.75 611.795 1444.87 607.623 1444.11 587.267C1443.61 573.992 1443.1 559.706 1443.1 555.28L1442.98 547.442H1427.18H1411.38V491.939C1411.38 419.748 1410.11 406.978 1400.76 385.232C1386.6 352.613 1366.88 330.741 1338.95 316.707C1318.98 306.719 1304.82 303.306 1280.55 302.673C1267.28 302.421 1258.56 302.8 1251.48 304.064ZM1285.99 502.686C1291.3 503.823 1302.29 507.364 1310.26 510.651L1324.79 516.593L1325.17 522.914C1325.55 529.109 1325.42 529.362 1319.48 534.293C1298.75 551.614 1279.41 559.706 1262.1 558.441C1243.64 556.924 1229.36 548.453 1225.95 536.695C1222.66 526.075 1229.74 514.191 1243.26 507.237C1256.54 500.536 1269.05 499.146 1285.99 502.686Z" fill="white"/>
<path d="M838.784 347.935C838.784 350.211 837.899 363.992 836.888 378.658C833.475 427.965 824.88 568.176 824.122 587.899L823.49 607.496L828.167 610.91L832.843 614.45H877.336H921.829L922.587 601.427C922.967 594.347 924.104 574.119 924.863 556.545C925.747 538.971 926.885 524.811 927.391 524.937C928.023 525.19 939.019 534.167 952.039 544.913C965.058 555.66 976.687 565.268 977.824 566.027C979.72 567.418 981.869 566.153 993.119 556.671C1000.32 550.603 1011.95 540.741 1018.78 534.546C1025.73 528.477 1031.54 523.547 1031.67 523.799C1031.8 523.926 1032.81 542.258 1033.95 564.51C1035.84 599.657 1036.47 605.6 1038.62 610.025L1041.15 615.208L1083.12 614.703C1106.25 614.45 1125.21 613.944 1125.46 613.818C1126.47 612.933 1119.27 365.003 1118 357.418C1117.12 351.602 1116.11 348.947 1114.84 348.947C1113.83 348.947 1082.48 370.819 1045.07 397.369C1007.78 424.046 976.055 446.677 974.538 447.562C972.136 449.079 966.954 445.16 906.914 397.369C871.143 368.923 841.186 345.28 840.427 344.775C839.163 344.016 838.784 344.901 838.784 347.935Z" fill="white"/>
<path d="M2335.36 345.912C2323.23 347.43 2308.94 350.717 2298.96 354.13C2279.11 361.084 2239.93 382.198 2224.13 394.462C2218.82 398.634 2209.59 400.783 2197.2 400.783C2188.61 400.783 2187.47 401.162 2177.99 406.599C2172.43 409.886 2167.75 412.667 2167.5 412.794C2167.25 413.047 2168.26 417.345 2169.65 422.529C2181.4 465.389 2185.07 543.649 2177.49 591.692C2176.22 600.416 2174.71 610.91 2174.2 615.208L2173.44 622.921L2182.04 623.679C2186.71 624.185 2209.09 624.564 2231.71 624.564H2272.79L2284.04 621.151L2295.29 617.737L2294.41 605.726C2294.03 599.025 2293.27 561.728 2292.89 522.788L2292.26 451.987L2299.08 446.298C2305.28 441.241 2306.92 440.482 2314 439.85C2330.3 438.333 2352.3 442.631 2362.16 449.206C2367.59 452.999 2372.77 461.469 2375.43 471.584C2377.32 478.917 2377.58 487.767 2377.7 552.878C2377.7 623.806 2377.83 625.828 2380.11 626.587C2381.5 627.093 2403.62 626.966 2429.4 626.461C2473.64 625.702 2477.05 625.449 2489.57 622.415C2496.9 620.645 2503.47 618.495 2504.36 617.737C2505.49 616.725 2505.37 608.381 2504.1 582.21C2503.22 563.372 2502.08 537.58 2501.58 524.684C2500.06 478.79 2497.91 463.239 2490.58 439.976C2475.41 392.186 2444.06 361.21 2399.19 349.452C2388.2 346.545 2383.52 346.039 2363.17 345.786C2350.28 345.533 2337.76 345.66 2335.36 345.912Z" fill="white"/>
<path d="M1949.84 351.096C1927.85 354.889 1898.02 366.773 1877.79 379.796C1867.55 386.496 1843.41 407.357 1836.71 415.449C1824.45 430.241 1814.21 451.734 1810.17 470.952C1807.26 484.48 1807.26 510.524 1810.17 524.052C1816.11 551.993 1831.53 577.406 1853.52 595.106C1884.74 620.392 1949.08 638.092 1992.56 633.541C2022.27 630.506 2062.97 617.737 2092.67 602.312C2125.79 585.118 2151.45 554.016 2159.79 521.018C2162.19 511.789 2162.44 507.869 2161.81 492.571C2161.05 471.078 2158.65 461.722 2148.92 441.873C2119.72 382.071 2059.43 348.567 1981.44 349.073C1969.31 349.073 1956.16 349.958 1949.84 351.096ZM1994.96 451.229C2015.82 455.527 2030.99 465.262 2040.97 480.687C2054.37 501.421 2051.84 523.673 2034.15 541.247C2025.81 549.465 2021 551.614 2005.46 553.89C1981.95 557.303 1954.14 548.453 1939.85 532.776C1928.48 520.639 1923.04 501.295 1925.7 483.089C1927.34 472.089 1933.53 458.435 1938.46 454.895C1946.93 449.079 1975.25 447.183 1994.96 451.229Z" fill="white"/>
<path d="M329.392 356.153C329.392 358.808 330.53 394.841 331.92 436.183C333.184 477.526 334.954 534.672 335.712 563.246C336.47 591.819 337.355 615.714 337.608 616.473C337.861 617.358 342.664 619.76 348.352 621.909L358.717 625.828H394.614H430.512V622.794C430.512 621.15 428.49 596.749 426.088 568.808C421.032 509.892 421.411 515.834 422.802 515.834C423.307 515.834 469.064 537.96 524.174 565.016C617.331 610.53 657.147 629.748 657.526 629.242C657.653 629.116 656.389 578.67 654.746 517.099L651.838 405.208L645.139 398.887L638.44 392.439L599.509 387.761C578.147 385.106 560.072 383.336 559.314 383.715C558.555 384.221 558.302 386.749 558.682 389.784C559.693 397.496 564.749 486.882 564.243 487.388C563.99 487.64 561.21 486.25 558.05 484.353C538.837 472.342 418.63 402.427 330.403 351.855C329.771 351.602 329.392 353.498 329.392 356.153Z" fill="white"/>
<path d="M765.472 379.29C749.04 381.06 713.142 383.083 699.365 383.083H686.219L685.334 414.943C683.818 475.124 681.922 532.902 680.784 561.981C680.026 577.911 679.52 594.853 679.52 599.531V607.875L685.334 611.163L691.275 614.45H739.054H786.96V610.278C787.086 588.152 789.867 439.471 790.499 418.61L791.384 391.427L786.581 384.726C781.272 377.267 782.283 377.646 765.472 379.29Z" fill="white"/>
<path d="M1692.36 388.393L1687.31 395.094L1688.32 506.352C1688.82 567.544 1689.33 617.737 1689.33 617.863C1689.46 618.116 1708.92 618.243 1732.56 618.243H1775.79L1781.22 614.829L1786.53 611.415L1787.29 597.382C1787.67 589.796 1788.93 550.729 1789.94 510.777C1790.96 470.825 1792.22 427.839 1792.6 415.322L1793.36 392.439L1748.74 387.761C1724.09 385.106 1702.48 382.703 1700.71 382.324C1697.92 381.818 1696.66 382.703 1692.36 388.393Z" fill="white"/>
</g>
<defs>
<clipPath id="clip0_74_2">
<rect width="2528" height="641" fill="white" transform="translate(-22)"/>
</clipPath>
</defs>
</svg>
